<svg width="40" height="46" viewBox="0 0 40 46" fill="none" xmlns="http://www.w3.org/2000/svg">
<g clip-path="url(#clip0_132_379)">
<path d="M0.839312 20.8393C-0.27676 21.9553 -0.27676 23.7678 0.839312 24.8839L15.125 39.1696C16.2411 40.2857 18.0536 40.2857 19.1697 39.1696C20.2857 38.0536 20.2857 36.2411 19.1697 35.125L9.75003 25.7143H37.1429C38.7232 25.7143 40 24.4375 40 22.8571C40 21.2768 38.7232 20 37.1429 20H9.75896L19.1607 10.5893C20.2768 9.47321 20.2768 7.66071 19.1607 6.54463C18.0447 5.42856 16.2322 5.42856 15.1161 6.54463L0.830383 20.8303L0.839312 20.8393Z" fill="#545454"/>
</g>
<defs>
<clipPath id="clip0_132_379">
<rect width="40" height="45.7143" fill="white"/>
</clipPath>
</defs>
</svg>
