<svg width="37" height="37" viewBox="0 0 37 37" fill="none" xmlns="http://www.w3.org/2000/svg">
<path d="M17.9723 31.4552C10.4047 20.3473 9 19.2073 9 15.125C9 9.5331 13.4771 5 19 5C24.5229 5 29 9.5331 29 15.125C29 19.2073 27.5953 20.3473 20.0277 31.4552C19.5311 32.1816 18.4689 32.1816 17.9723 31.4552ZM19 19.3437C21.3012 19.3437 23.1667 17.455 23.1667 15.125C23.1667 12.795 21.3012 10.9062 19 10.9062C16.6988 10.9062 14.8333 12.795 14.8333 15.125C14.8333 17.455 16.6988 19.3437 19 19.3437Z" fill="#252625"/>
</svg>
