<svg width="13" height="19" viewBox="0 0 13 19" fill="none" xmlns="http://www.w3.org/2000/svg">
<path d="M8.57627 12.9164C8.03002 13.6945 7.38576 14.6122 6.625 15.7146C5.86424 14.6122 5.21998 13.6945 4.67373 12.9164C3.69128 11.517 3.02586 10.5692 2.56989 9.81098C2.22242 9.23323 2.02481 8.80931 1.9091 8.41858C1.79509 8.03361 1.75 7.64512 1.75 7.125C1.75 4.4326 3.9326 2.25 6.625 2.25C9.3174 2.25 11.5 4.4326 11.5 7.125C11.5 7.64512 11.4549 8.03361 11.3409 8.41858C11.2252 8.80931 11.0276 9.23323 10.6801 9.81098C10.2241 10.5692 9.55872 11.517 8.57627 12.9164Z" stroke="black" stroke-width="1.5"/>
</svg>
