<svg width="25" height="25" viewBox="0 0 25 25" fill="none" xmlns="http://www.w3.org/2000/svg">
<path d="M9.97523 0.245856C5.1216 1.19314 1.21037 5.09457 0.253316 9.93351C-1.55337 19.0645 6.68413 25.8713 12.8903 24.9093C14.9021 24.5968 15.8885 22.2433 14.9656 20.4317C13.8376 18.2149 15.449 15.627 17.9393 15.627H21.831C23.5791 15.627 24.9951 14.1816 25 12.4384C24.9756 4.743 17.9735 -1.31179 9.97523 0.245856ZM4.68702 15.627C3.82274 15.627 3.12448 14.9287 3.12448 14.0644C3.12448 13.2002 3.82274 12.5019 4.68702 12.5019C5.55129 12.5019 6.24955 13.2002 6.24955 14.0644C6.24955 14.9287 5.55129 15.627 4.68702 15.627ZM6.24955 9.37686C5.38527 9.37686 4.68702 8.67861 4.68702 7.81434C4.68702 6.95006 5.38527 6.25181 6.24955 6.25181C7.11383 6.25181 7.81209 6.95006 7.81209 7.81434C7.81209 8.67861 7.11383 9.37686 6.24955 9.37686ZM12.4997 6.25181C11.6354 6.25181 10.9372 5.55356 10.9372 4.68929C10.9372 3.82501 11.6354 3.12676 12.4997 3.12676C13.364 3.12676 14.0622 3.82501 14.0622 4.68929C14.0622 5.55356 13.364 6.25181 12.4997 6.25181ZM18.7499 9.37686C17.8856 9.37686 17.1873 8.67861 17.1873 7.81434C17.1873 6.95006 17.8856 6.25181 18.7499 6.25181C19.6141 6.25181 20.3124 6.95006 20.3124 7.81434C20.3124 8.67861 19.6141 9.37686 18.7499 9.37686Z" fill="#252625"/>
</svg>
