<svg width="21" height="22" viewBox="0 0 21 22" fill="none" xmlns="http://www.w3.org/2000/svg">
<path d="M20.3125 0.78125V2.34375C20.3125 2.55095 20.2302 2.74966 20.0837 2.89618C19.9372 3.04269 19.7385 3.125 19.5312 3.125H17.1875V21.0938C17.1875 21.301 17.1052 21.4997 16.9587 21.6462C16.8122 21.7927 16.6135 21.875 16.4062 21.875H14.8438C14.6365 21.875 14.4378 21.7927 14.2913 21.6462C14.1448 21.4997 14.0625 21.301 14.0625 21.0938V3.125H12.5V21.0938C12.5 21.301 12.4177 21.4997 12.2712 21.6462C12.1247 21.7927 11.926 21.875 11.7188 21.875H10.1562C9.94905 21.875 9.75034 21.7927 9.60382 21.6462C9.45731 21.4997 9.375 21.301 9.375 21.0938V15.625H7.8125C5.7405 15.625 3.75336 14.8019 2.28823 13.3368C0.8231 11.8716 0 9.8845 0 7.8125C0 5.7405 0.8231 3.75336 2.28823 2.28823C3.75336 0.8231 5.7405 0 7.8125 0H19.5312C19.7385 0 19.9372 0.08231 20.0837 0.228823C20.2302 0.375336 20.3125 0.57405 20.3125 0.78125Z" fill="#252625"/>
</svg>
