<svg width="40" height="64" viewBox="0 0 40 64" fill="none" xmlns="http://www.w3.org/2000/svg">
<path d="M13.9947 5.99902C13.9947 4.40798 14.6268 2.88211 15.7518 1.75707C16.8768 0.632038 18.4027 0 19.9938 0C21.5848 0 23.1107 0.632038 24.2357 1.75707C25.3607 2.88211 25.9928 4.40798 25.9928 5.99902C25.9928 7.59006 25.3607 9.11593 24.2357 10.241C23.1107 11.366 21.5848 11.998 19.9938 11.998C18.4027 11.998 16.8768 11.366 15.7518 10.241C14.6268 9.11593 13.9947 7.59006 13.9947 5.99902ZM18.9939 43.9928V59.9902C18.9939 62.2023 17.2067 63.9895 14.9946 63.9895C12.7824 63.9895 10.9952 62.2023 10.9952 59.9902V32.1072L7.42081 38.0563C6.28349 39.9435 3.8214 40.5559 1.93421 39.4185C0.0470144 38.2812 -0.565385 35.8191 0.571929 33.9319L7.85824 21.8089C10.0329 18.197 13.9322 15.9849 18.1441 15.9849H21.8559C26.0678 15.9849 29.9671 18.197 32.1418 21.8089L39.4281 33.9319C40.5654 35.8191 39.953 38.2812 38.0658 39.4185C36.1786 40.5559 33.7165 39.9435 32.5792 38.0563L28.9923 32.1072V59.9902C28.9923 62.2023 27.2051 63.9895 24.9929 63.9895C22.7808 63.9895 20.9936 62.2023 20.9936 59.9902V43.9928H18.9939Z" fill="#545454"/>
</svg>
