<svg width="20" height="16" viewBox="0 0 20 16" fill="none" xmlns="http://www.w3.org/2000/svg">
<path d="M16.25 15.3429H12.9688C12.7109 15.3429 12.5 15.132 12.5 14.8741V13.3116C12.5 13.0538 12.7109 12.8429 12.9688 12.8429H16.25C16.9414 12.8429 17.5 12.2843 17.5 11.5929V4.0929C17.5 3.40149 16.9414 2.8429 16.25 2.8429H12.9688C12.7109 2.8429 12.5 2.63196 12.5 2.37415V0.811646C12.5 0.553833 12.7109 0.342896 12.9688 0.342896H16.25C18.3203 0.342896 20 2.02258 20 4.0929V11.5929C20 13.6632 18.3203 15.3429 16.25 15.3429ZM14.4141 7.49133L7.85156 0.928833C7.26562 0.342896 6.25 0.753052 6.25 1.5929V5.3429H0.9375C0.417969 5.3429 0 5.76086 0 6.2804V10.0304C0 10.5499 0.417969 10.9679 0.9375 10.9679H6.25V14.7179C6.25 15.5577 7.26562 15.9679 7.85156 15.382L14.4141 8.81946C14.7773 8.45227 14.7773 7.85852 14.4141 7.49133Z" fill="white"/>
</svg>
