<svg width="512" height="512" viewBox="0 0 512 512" fill="none" xmlns="http://www.w3.org/2000/svg">
<g clip-path="url(#clip0_36_65)">
<path d="M96 0C113.7 0 128 14.3 128 32V64H480C497.7 64 512 78.3 512 96C512 113.7 497.7 128 480 128H128V480C128 497.7 113.7 512 96 512C78.3 512 64 497.7 64 480V128H32C14.3 128 0 113.7 0 96C0 78.3 14.3 64 32 64H64V32C64 14.3 78.3 0 96 0ZM192 160H448C465.7 160 480 174.3 480 192V352C480 369.7 465.7 384 448 384H192C174.3 384 160 369.7 160 352V192C160 174.3 174.3 160 192 160Z" fill="#EEC3C2"/>
<rect x="159" y="161" width="321" height="222" rx="30" fill="#EA9757"/>
</g>
<defs>
<clipPath id="clip0_36_65">
<rect width="512" height="512" fill="white"/>
</clipPath>
</defs>
</svg>
