<svg width="24" height="24" viewBox="0 0 24 24" fill="none" xmlns="http://www.w3.org/2000/svg">
<path d="M3 14C2.99887 15.6582 3.4559 17.2845 4.32064 18.6995C5.18537 20.1144 6.42421 21.2629 7.90042 22.0182C9.37663 22.7735 11.0328 23.1064 12.6862 22.9799C14.3397 22.8535 15.926 22.2727 17.2702 21.3017C18.6144 20.3307 19.6642 19.0071 20.3037 17.4772C20.9433 15.9473 21.1477 14.2704 20.8944 12.6316C20.6412 10.9928 19.9401 9.45584 18.8685 8.19033C17.797 6.92482 16.3966 5.97995 14.822 5.46L15.841 3.875C15.9396 3.72207 15.9945 3.54516 16 3.36331C16.0055 3.18146 15.9612 3.00156 15.872 2.843L15.122 1.51C15.035 1.35524 14.9084 1.22643 14.7551 1.1368C14.6019 1.04717 14.4275 0.999951 14.25 1H9.75C9.57247 0.999951 9.39812 1.04717 9.24487 1.1368C9.09162 1.22643 8.96499 1.35524 8.878 1.51L8.128 2.843C8.0388 3.00156 7.99455 3.18146 8.00002 3.36331C8.00548 3.54516 8.06045 3.72207 8.159 3.875L9.178 5.46C7.38211 6.05477 5.81896 7.19969 4.71011 8.73248C3.60126 10.2653 3.00296 12.1082 3 14ZM11.282 5.034L10.167 3.3L10.335 3H13.665L13.833 3.3L12.718 5.034C12.468 5.011 12.23 5 12 5C11.77 5 11.532 5.011 11.282 5.034ZM12 7C13.3845 7 14.7378 7.41054 15.889 8.17971C17.0401 8.94888 17.9373 10.0421 18.4672 11.3212C18.997 12.6003 19.1356 14.0078 18.8655 15.3656C18.5954 16.7235 17.9287 17.9708 16.9497 18.9497C15.9708 19.9287 14.7235 20.5954 13.3656 20.8655C12.0078 21.1356 10.6003 20.997 9.32122 20.4672C8.04213 19.9373 6.94888 19.0401 6.17971 17.889C5.41055 16.7378 5 15.3845 5 14C5.0058 12.1453 5.74516 10.3682 7.05666 9.05666C8.36816 7.74516 10.1453 7.0058 12 7Z" fill="white"/>
</svg>
